<svg width="196" height="58" viewBox="0 0 196 58" fill="none" xmlns="http://www.w3.org/2000/svg">
<path d="M61.3182 28.3409H52.6591C52.6136 27.8068 52.4261 27.3466 52.0966 26.9602C51.767 26.5739 51.3409 26.2784 50.8182 26.0739C50.3068 25.858 49.7386 25.75 49.1136 25.75C48.3068 25.75 47.6136 25.8977 47.0341 26.1932C46.4545 26.4886 46.1705 26.9091 46.1818 27.4545C46.1705 27.8409 46.3352 28.1989 46.6761 28.5284C47.0284 28.858 47.7045 29.1136 48.7045 29.2955L54.0227 30.25C56.7045 30.7386 58.6989 31.5625 60.0057 32.7216C61.3239 33.8693 61.9886 35.4091 62 37.3409C61.9886 39.2045 61.4318 40.8239 60.3295 42.1989C59.2386 43.5625 57.7443 44.6193 55.8466 45.3693C53.9602 46.108 51.8068 46.4773 49.3864 46.4773C45.3864 46.4773 42.2557 45.6591 39.9943 44.0227C37.7443 42.3864 36.4886 40.2273 36.2273 37.5455H45.5682C45.6932 38.375 46.1023 39.017 46.7955 39.4716C47.5 39.9148 48.3864 40.1364 49.4545 40.1364C50.3182 40.1364 51.0284 39.9886 51.5852 39.6932C52.1534 39.3977 52.4432 38.9773 52.4545 38.4318C52.4432 37.9318 52.1932 37.5341 51.7045 37.2386C51.2273 36.9432 50.4773 36.7045 49.4545 36.5227L44.8182 35.7045C42.1477 35.2386 40.1477 34.3523 38.8182 33.0455C37.4886 31.7386 36.8295 30.0568 36.8409 28C36.8295 26.1818 37.3068 24.642 38.2727 23.3807C39.25 22.108 40.642 21.142 42.4489 20.483C44.267 19.8125 46.4205 19.4773 48.9091 19.4773C52.6932 19.4773 55.6761 20.2614 57.858 21.8295C60.0511 23.3977 61.2045 25.5682 61.3182 28.3409ZM71.1742 31.2727V46H61.7651V11.0909H70.8333V24.7955H71.106C71.6969 23.125 72.6799 21.8239 74.0549 20.892C75.4299 19.9489 77.0833 19.4773 79.0151 19.4773C80.8674 19.4773 82.4753 19.8977 83.839 20.7386C85.214 21.5795 86.2765 22.7386 87.0265 24.2159C87.7878 25.6932 88.1628 27.3864 88.1515 29.2955V46H78.7424V31.2727C78.7538 29.9773 78.4299 28.9602 77.7708 28.2216C77.1231 27.483 76.1969 27.1136 74.9924 27.1136C74.231 27.1136 73.5606 27.2841 72.981 27.625C72.4128 27.9545 71.9697 28.4318 71.6515 29.0568C71.3447 29.6705 71.1856 30.4091 71.1742 31.2727ZM101.57 46.4773C98.7291 46.4773 96.2973 45.9148 94.2745 44.7898C92.2518 43.6534 90.7007 42.0739 89.6211 40.0511C88.5416 38.017 88.0018 35.6591 88.0018 32.9773C88.0018 30.2955 88.5416 27.9432 89.6211 25.9205C90.7007 23.8864 92.2518 22.3068 94.2745 21.1818C96.2973 20.0455 98.7291 19.4773 101.57 19.4773C104.411 19.4773 106.843 20.0455 108.865 21.1818C110.888 22.3068 112.439 23.8864 113.519 25.9205C114.598 27.9432 115.138 30.2955 115.138 32.9773C115.138 35.6591 114.598 38.017 113.519 40.0511C112.439 42.0739 110.888 43.6534 108.865 44.7898C106.843 45.9148 104.411 46.4773 101.57 46.4773ZM101.638 39.5227C102.434 39.5227 103.121 39.2557 103.701 38.7216C104.28 38.1875 104.729 37.4261 105.047 36.4375C105.365 35.4489 105.525 34.2727 105.525 32.9091C105.525 31.5341 105.365 30.358 105.047 29.3807C104.729 28.392 104.28 27.6307 103.701 27.0966C103.121 26.5625 102.434 26.2955 101.638 26.2955C100.797 26.2955 100.076 26.5625 99.4734 27.0966C98.8711 27.6307 98.4109 28.392 98.0927 29.3807C97.7745 30.358 97.6155 31.5341 97.6155 32.9091C97.6155 34.2727 97.7745 35.4489 98.0927 36.4375C98.4109 37.4261 98.8711 38.1875 99.4734 38.7216C100.076 39.2557 100.797 39.5227 101.638 39.5227ZM115.116 46V19.8182H124.253V24.7955H124.525C125.003 22.9545 125.758 21.608 126.793 20.7557C127.838 19.9034 129.06 19.4773 130.457 19.4773C130.866 19.4773 131.27 19.5114 131.668 19.5795C132.077 19.6364 132.469 19.7216 132.844 19.8352V27.8636C132.378 27.7045 131.804 27.5852 131.122 27.5057C130.44 27.4261 129.855 27.3864 129.366 27.3864C128.446 27.3864 127.616 27.5966 126.878 28.017C126.15 28.4261 125.577 29.0057 125.156 29.7557C124.736 30.4943 124.525 31.3636 124.525 32.3636V46H115.116ZM148.781 19.8182V26.6364H131.531V19.8182H148.781ZM134.872 13.5455H144.281V37.5795C144.281 37.9432 144.343 38.25 144.468 38.5C144.593 38.7386 144.786 38.9205 145.048 39.0455C145.309 39.1591 145.644 39.2159 146.053 39.2159C146.337 39.2159 146.667 39.1818 147.042 39.1136C147.428 39.0455 147.712 38.9886 147.894 38.9432L149.258 45.5568C148.837 45.6818 148.235 45.8352 147.451 46.017C146.678 46.1989 145.758 46.3182 144.69 46.375C142.531 46.4886 140.718 46.267 139.252 45.7102C137.786 45.142 136.684 44.25 135.945 43.0341C135.207 41.8182 134.849 40.2955 134.872 38.4659V13.5455Z" fill="#570DF8"/>
<path d="M149.053 46V40.8182L160.507 27.1136V26.9773H149.462V19.8182H171.621V25.5455L161.189 38.7045V38.8409H172.03V46H149.053ZM173.393 46V19.8182H182.802V46H173.393ZM178.098 17.0909C176.825 17.0909 175.734 16.6705 174.825 15.8295C173.916 14.9886 173.461 13.9773 173.461 12.7955C173.461 11.6136 173.916 10.6023 174.825 9.76136C175.734 8.92045 176.825 8.5 178.098 8.5C179.382 8.5 180.473 8.92045 181.371 9.76136C182.28 10.6023 182.734 11.6136 182.734 12.7955C182.734 13.9773 182.28 14.9886 181.371 15.8295C180.473 16.6705 179.382 17.0909 178.098 17.0909ZM193.165 11.0909V46H183.756V11.0909H193.165Z" fill="#212735"/>
<path fill-rule="evenodd" clip-rule="evenodd" d="M24.0614 6.13699C26.169 4.10135 28.9919 2.97496 31.922 3.00042C34.8521 3.02588 37.6549 4.20116 39.7269 6.27312C41.7988 8.34508 42.9741 11.1479 42.9996 14.078C43.025 17.0081 41.8986 19.831 39.863 21.9386L39.8275 21.9748L31.5676 30.2347C29.472 32.3297 26.6297 33.5069 23.6665 33.5069C20.7032 33.5069 17.8613 32.33 15.7656 30.235C14.627 29.0967 14.6267 27.2508 15.765 26.1122C16.9033 24.9735 18.7492 24.9733 19.8878 26.1116C20.8901 27.1135 22.2493 27.6764 23.6665 27.6764C25.0835 27.6764 26.4426 27.1136 27.4448 26.1119C27.4449 26.1118 27.4447 26.112 27.4448 26.1119L35.6849 17.8718C36.6485 16.8656 37.1814 15.5225 37.1693 14.1287C37.1571 12.7274 36.595 11.3869 35.6041 10.3959C34.6131 9.40498 33.2726 8.84289 31.8713 8.83071C30.4775 8.8186 29.1344 9.35149 28.1281 10.3152L25.8765 12.5668C24.7381 13.7052 22.8922 13.7052 21.7538 12.5668C20.6153 11.4283 20.6153 9.58245 21.7538 8.44397L24.0252 6.17251L24.0614 6.13699ZM11.6357 18.562C13.7314 16.467 16.5733 15.2901 19.5365 15.2901C22.4998 15.2901 25.3417 16.467 27.4374 18.562C28.576 19.7003 28.5763 21.5462 27.438 22.6848C26.2997 23.8235 24.4538 23.8237 23.3152 22.6854C22.3129 21.6835 20.9537 21.1206 19.5365 21.1206C18.1195 21.1206 16.7604 21.6834 15.7582 22.6851C15.7581 22.6852 15.7583 22.685 15.7582 22.6851L7.4983 30.945L7.46216 30.9805C6.95169 31.4736 6.54453 32.0633 6.26442 32.7154C5.98432 33.3674 5.83688 34.0688 5.83071 34.7784C5.82454 35.4881 5.95977 36.1919 6.22851 36.8487C6.49724 37.5055 6.89409 38.1023 7.39591 38.6041C7.89774 39.1059 8.49448 39.5028 9.15131 39.7715C9.80814 40.0402 10.5119 40.1755 11.2216 40.1693C11.9312 40.1631 12.6326 40.0157 13.2846 39.7356C13.9367 39.4555 14.5264 39.0483 15.0195 38.5378L15.0559 38.5008L17.3315 36.2272C18.4705 35.0893 20.3164 35.0901 21.4543 36.2291C22.5923 37.3681 22.5914 39.2139 21.4524 40.3519L19.1939 42.6084C18.167 43.6663 16.9408 44.5107 15.5859 45.0927C14.2225 45.6784 12.7561 45.9867 11.2722 45.9996C9.78842 46.0125 8.31688 45.7297 6.9435 45.1678C5.57011 44.6059 4.32239 43.7761 3.27312 42.7269C2.22386 41.6776 1.39407 40.4299 0.832174 39.0565C0.270277 37.6831 -0.012472 36.2116 0.000421927 34.7278C0.013316 33.2439 0.321596 31.7775 0.907274 30.4141C1.48937 29.0591 2.33388 27.8327 3.39205 26.8057L11.6357 18.562Z" fill="#570DF8"/>
</svg>
